<svg xmlns="http://www.w3.org/2000/svg" width="386.053" height="708.865" viewBox="0 0 386.053 708.865">
    <defs>
        <style>
            .cls-1{fill:none}.cls-2{clip-path:url(#clip-path)}.cls-3{fill:#fff}
        </style>
        <clipPath id="clip-path">
            <path d="M0 0h386.053v708.866H0z" class="cls-1"/>
        </clipPath>
    </defs>
    <g id="Componente_1" class="cls-2" data-name="Componente 1">
        <path id="Trazado_7620" d="M2069.521 1160.478q-10.206-17.973-20.407-35.948a428.7 428.7 0 0 0-31.632-47.925c-4.8-6.338-10.069-12.161-17.851-15.142-2.988-1.146-3.239-2.5-2.184-5.1a13.554 13.554 0 0 0 .374-4.878c-8.2-.728-8.674-11.638-16.962-11.854-3.045-.079-4.823-.558-5.022-3.932-.326-5.567-3.878-4.785-7.673-3.2a15.41 15.41 0 0 0-7.715 7.12c-7.219 13.247-19.1 21.387-32.745 27.656-4.451 2.046-8.985 3.969-13.242 6.337-15.378 8.55-20.745 21.52-18.723 38.452 4.633 38.831 18.524 75.469 27.893 113.17 6.825 27.468 8.079 55.51 6.954 85.331-7.646-8.806-14.316-16.542-21.048-24.227-12.7-14.5-24.541-29.735-39.311-42.474-1.913-1.651-3.895-3.523-6.213-4.385-4.49-1.67-8.941-2.386-8.363 4.766.435 5.355-1.2 7.58-6.871 4.027a15.148 15.148 0 0 0-6.67-1.683c-8.864-.672-10.689 1.686-8.21 9.994.692 2.316 2.393 4.534.986 7.541l-12.824-5.3c-3.224 10.466-1.468 19.725 5.435 27.728 19.887 23.052 40.042 45.9 61.635 67.515 10.664 10.677 23.486 18.881 36.684 26.466 9.26 5.32 18.624 5.627 27.991-.7 1.973 24.777 3.963 48.741 5.739 72.721.619 8.347-5.032 12.654-12.246 15.4a299.809 299.809 0 0 0-57.062 28.863c-4.519 2.935-9.272 5.653-13.324 9.108-5.117 4.362-9.372 4.657-14.958.477-9.57-7.16-20.992-9.592-32.973-9.522-7.6.046-9.223 2.651-6.038 9.4 1.479 3.137 3.312 6.123 5.277 9.715-10.122.825-6.526 5.58-3.734 10.27.833 1.4 2.933 3.111 1.295 4.641-7.8 7.287-.126 11.152 4.017 14.921 4.66 4.239 10.477 7.324 15.839 10.842 8.8 5.771 17.669 11.438 26.44 17.239 9.359 6.192 18.57 7.45 29.028 1.639 19.831-11.024 41.567-18.083 62.745-26.286 3.185-1.235 4.911-.786 6.718 2.33a204.757 204.757 0 0 0 38.856 48.394c3.627 3.327 1.773 5.3-.224 8.05-14.1 19.443-27.453 39.287-35.126 62.062-2.231 6.627-4.668 13.224-4.466 20.334.218 7.7 1.317 8.434 9.05 6.248 1.47-.416 2.95-.8 4.913-1.33.112 1.2.282 2.1.27 3.006-.042 3.4-1.378 7.315 2.833 9.3 4.094 1.932 7.668.067 10.618-2.607 3.292-2.983 4.932-2.512 6.257 1.66a47.817 47.817 0 0 0 4.623 10.245c4.544 7.49 9.574 7.541 14.761.314a30.9 30.9 0 0 0 3.3-5.906c21.131-49.731 56.121-87.837 104.32-115.242 24.348-13.842 45.9-30.916 62.475-53.338 9.595-12.984 15.395-28.67 12.975-42.826-4.825-28.207-4.264-56.814-10.03-84.91-5.773-28.123-16.962-54.182-27.891-80.508-9.676-23.306-20.361-46.511-24.164-71.445-3.525-23.122-3.907-46.667-6.794-69.9-6.752-54.34-10.319-109.113-23.328-162.632-.177-.728-.252-1.484-.489-2.193-1.253-3.765-2-7.775-7.014-9.015-5.049-1.246-7.709 1.742-10.331 4.937-14.219-14.649-17.076-14.286-23 2.8-1.912-.2-2.189-1.849-2.845-3.065-2.182-4.048-5.411-6.006-10.2-4.76-4.947 1.286-4.837 5.171-4.939 8.994-.651 24.824 4.969 49.02 8.062 73.463 2.439 19.274 5.4 38.484 8.135 57.723.287 1.161.632 2.328-.338 3.371zm-101.776-120.016l1.788-.288-.25 2.485c.124 2.911-1.268 6.75 1.492 8.373 2.813 1.653 4.57-2.369 7.044-3.465 1.633-.725 3.139-1.788 4.935-.307-1.363 5.457-8.577 9.373-2.955 16.86 2.539 3.381.756 5.241 5.819 3.59 10.212-3.33 17.268-.047 23.677 7.738 27.767 33.718 47.137 71.94 65.585 110.677 1.934 4.062 3.4 8.324 5.231 12.433.741 1.657 2.1 3.178 4.232 2.285 1.915-.8.943-2.544.637-3.925-2.371-10.705-5.073-21.352-7.095-32.118-8.016-42.663-12.431-85.8-18.075-128.768-.515-3.918-1.665-9.4 3.1-10.175 4.167-.674 4.726 4.992 5.764 8.457 2.386 7.968 4.633 15.974 7.209 24.9 3.38-3.2 3.3-6.1 3.3-9q0-11.217.041-22.436c.017-3.165.782-6.5 4.266-7.194 3.7-.737 5.227 2.739 6.541 5.313 2.561 5.013 2.886 10.57 3.288 16.025.343 4.7 1.008 9.2 4.165 13.058 1.674-1.009 1.852-2.516 2.228-3.969 1.71-6.627 1.468-13.317 1.011-20.052-.2-2.934 1.239-5.941 4.327-6.266 2.588-.272 3.2 2.888 3.834 4.964a190.993 190.993 0 0 1 3.285 12.284c4.561 19.483 5.321 39.475 8.562 59.142 5.792 35.16 11.429 70.326 13.672 105.937 1.456 23.1 2.8 46.353 6.8 69.119 4.393 25.047 15.954 48.294 26.275 71.523 21.051 47.372 29.932 96.575 28.717 147.737-.037 1.5 2.511 3.169.828 4.118 4.235 2.518 2.391 5.948 1.993 9.322-2.782 23.564-17.108 40.612-34.405 55.965-16.508 14.653-35.965 25.375-54.486 37.357-29.939 19.369-54.888 43.279-72.664 73.718-7.5 12.849-16.41 24.97-20.647 39.824-10.446-7.689-2.8-19.457-8.793-27.428-7.345 2.757-8.545 11.824-17.3 13.675l4.182-25.566a18.526 18.526 0 0 0-2.515.951c-3.951 2.314-5.37 6.646-8.388 9.7-1.946 1.977-4.254 4.99-7.012 3.644-2.561-1.249-.5-4.487.029-6.755 5.652-24.461 17.392-46.19 32.731-66.275 7.43-9.729 7.464-9.705 18.1-3.646 8.05 4.585 8.05 4.585 13.521 2.474-38.3-27.8-39.862-29.33-67.7-72.721-2.675-4.169-4.8-2.346-7.532-1.183q-33.446 14.216-66.863 28.493c-5.36 2.3-10.992 4.658-16.376 1.5-16.151-9.482-32.806-18.272-47.428-29.974-.887-.712-2.245-1.421-1.514-3.339 3.049-.267 6.286-.551 10.314-.9-5.051-5.283-9.527-9.964-14.421-15.079 5.251-1.435 8.818 1.572 12.842 1.753 1.868.084 4.031-.021 4.881-1.7 1.091-2.148-1.39-2.862-2.668-3.85-4.419-3.425-10.061-5.411-13.356-10.142-1.407-2.023-3.445-4.39-1.771-6.808 1.419-2.046 4.262-1.3 6.549-1.091 9.42.849 17.292 5.346 24.671 10.426 7.039 4.846 12.967 4.692 19.532-.821 8.215-6.9 17.37-12.642 26.676-18.16 14.42-8.552 30.126-14.523 45.45-21.292 11.682-5.16 14.134-10.454 13.059-22.548-2.291-25.794-5.882-51.475-6.973-77.378-.755-17.89-1.227-35.845-5.809-53.371-.85-3.253-1.509-6.631-6.823-7.282 1 5.432 1.915 10.289 2.772 15.156 2.549 14.472 5.9 28.916 2.277 43.679-1.866 7.585-5.45 9.838-13.482 8.8-6.114-.79-11.247-3.588-16.255-6.8-37.41-24.031-63.86-58.221-91.921-90.9a13.657 13.657 0 0 1-2.811-13.709c11.714 4.462 19.69 13.73 31.236 20.141-4.235-13.8-19.331-20.813-19.195-35.589 15.813 2.9 22.361 17.783 36.266 25.133-3.228-11.78-13.079-19.19-13.263-30.516 3.824.13 5.362 2.714 7.376 4.548 12.659 11.542 23.826 24.361 34.806 37.338q11.058 13.069 22.181 26.079c1.9 2.219 4.381 3.7 7.53 2.87 2.886-.756 1.786-3.3 1.892-5.057 2.094-34.5-.136-68.494-10.229-102.007-10.069-33.432-19.668-67.02-23.537-101.86-1.312-11.8 1.8-20.283 12.328-26.661a199.906 199.906 0 0 1 21.061-11.275c12.345-5.592 22.111-13.872 28.732-25.424.981-1.698 1.668-3.724 3.872-4.493zm23.255 15.787c-.5 3.7-3.236 4.583-6.22 5.1-.107.018-.792-1.267-.593-1.649 1.348-2.575 3.642-3.614 6.813-3.451z" class="cls-3" data-name="Trazado 7620" transform="translate(-1820.502 -1013.751)"/>
        <path id="Trazado_7621" d="M1916.068 1032.037c-3.168-.163-5.462.877-6.813 3.455-.2.381.486 1.667.593 1.648 2.984-.519 5.717-1.403 6.22-5.103z" class="cls-3" data-name="Trazado 7621" transform="translate(-1745.572 -989.54)"/>
        <path id="Trazado_7622" d="M1876.1 1077.449l1.317 2.328c.969-1.044.624-2.211.338-3.371-.555.348-1.107.694-1.655 1.043z" class="cls-3" data-name="Trazado 7622" transform="translate(-1627.078 -930.721)"/>
        <path id="Trazado_7623" d="M1919.591 1027.6l.25-2.485-1.788.286z" class="cls-3" data-name="Trazado 7623" transform="translate(-1770.811 -998.691)"/>
        <path id="Trazado_7624" d="M1934.073 1148.885c20.337.114 35.918-3.718 49.972-12.763 6.58-4.237 10.62-9.806 12.086-17.441 2.073-10.81 3.669-21.631 2.818-32.613-.331-4.281-.243-10.264-5.006-11.5-5.865-1.525-10.951 1.951-13.857 7.42-1.176 2.211-2.695 4.3-3.538 6.62-9.111 25.049-29.917 31.018-54.523 30.518-8.291-.167-16.558-1.263-24.851-1.614-5.212-.221-9.933 1.084-11.774 6.59-1.761 5.267 1.625 8.485 5.375 11.345 13.725 10.471 29.959 12.991 43.298 13.438zm61.056-53.217c-2.678 25.777-9.406 40.9-38.115 46.011-4.332.772-8.679 1.86-13.045 1.99-16.544.491-32.731-1.032-46.981-10.184-2.673-1.716-6.667-4.029-5.576-7.229 1.064-3.12 5.525-3.065 8.915-2.827 6.716.47 13.429 1.669 20.13 1.576 33.953-.469 51.138-8.057 60.566-32 1.871-4.748 4.25-12.089 9.636-11.075 5.873 1.105 3.324 8.934 4.471 13.738z" class="cls-3" data-name="Trazado 7624" transform="translate(-1769.654 -933.636)"/>
        <path id="Trazado_7625" d="M1921.914 1080.823c.136 13.266 6.317 23.789 16.471 32.367 3.365 2.844 7.35 4.95 12.085 3.265 4.859-1.73 6.412-6.015 6.4-10.243-.024-11.735-2.976-23.106-7.612-33.829-2.741-6.337-10.066-8.308-16.471-10.222-3.382-1.009-5.72 1.758-7.481 4.314-2.996 4.342-3.095 9.351-3.392 14.348zm29.6 19.688c-.962 2.716 1.181 7.615-2.265 9.145-4.011 1.781-7.649-1.916-10.71-4.474-9.172-7.662-12.95-21.838-9.272-32.79 1.417-4.223 3.275-4.948 7-2.232 10.285 7.517 14.566 17.768 15.249 30.35z" class="cls-3" data-name="Trazado 7625" transform="translate(-1817.223 -949.881)"/>
        <path id="Trazado_7626" d="M1932.622 1093.012c-2.133-10.2-1.589-20.987-7.6-30.188-4.677-7.162-13.6-11.856-18.439-10.2-5.088 1.739-8.268 10.061-6.786 19.1 1.757 10.726 5.511 20.7 14.005 28.416 4.012 3.644 8.7 7.8 14.33 5.515 5.195-2.103 2.891-8.355 4.49-12.643zm-27.669-25.389c-.282-5.178.218-9.261 4.847-10.231 4.359-.916 6.157 2.914 7.7 6.015 2.77 5.569 5.324 11.238 7.9 16.893a21.382 21.382 0 0 1 1.808 12.375c-.408 2.562.522 6.315-2.629 7.189-2.738.761-5.027-2.093-7.119-3.883-9.218-7.881-11.327-18.574-12.507-28.358z" class="cls-3" data-name="Trazado 7626" transform="translate(-1738.346 -962.679)"/>
    </g>
</svg>
