<svg xmlns="http://www.w3.org/2000/svg" width="472.951" height="68.882" viewBox="0 0 472.951 68.882">
    <defs>
        <style>
            .cls-1{fill:none}.cls-2{clip-path:url(#clip-path)}.cls-3{fill:#1c0657}
        </style>
        <clipPath id="clip-path">
            <path d="M0 0h472.951v68.882H0z" class="cls-1"/>
        </clipPath>
    </defs>
    <g id="ico_TMW" class="cls-2">
        <path id="Trazado_7601" d="M1219.121 763.438a30.647 30.647 0 0 1-7.251.818c-8.755 0-10.055-5.044-10.055-10.633V737.47h-4.788v-8.248h4.925v-11.04h10.465v11.04h6.566v8.248h-6.566v14.38c0 3.2 1.026 4.09 3.147 4.09a11.161 11.161 0 0 0 3.556-.614z" class="cls-3" data-name="Trazado 7601" transform="translate(-1197.027 -710.931)"/>
        <path id="Trazado_7602" d="M1233.346 764.767v-18.948c0-2.521-.274-4.157-1.094-5.247-.754-1.022-1.917-1.433-3.627-1.433a5.812 5.812 0 0 0-4.856 2.591c-1.026 1.636-1.367 3.2-1.367 6.339v16.7h-10.6v-48.12h10.4v18.538a14.017 14.017 0 0 1 11.219-5.451c3.624 0 6.223 1.021 8.07 3.2 1.711 2.045 2.394 4.975 2.394 9.68v22.15z" class="cls-3" data-name="Trazado 7602" transform="translate(-1185.533 -712.124)"/>
        <path id="Trazado_7603" d="M1255.689 738.091c0-3.476-2.05-6.339-5.882-6.339-3.693 0-6.019 2.454-6.292 6.339zm10.4 12.677c-3.078 6.2-8 9.61-15.664 9.61-11.354 0-17.577-7.089-17.577-18.539 0-11.178 6.771-18.061 17.236-18.061 12.313 0 16.279 9.406 16.279 21.469h-22.915c.548 4.431 3.215 6.339 7.046 6.339a6.321 6.321 0 0 0 6.292-4.09z" class="cls-3" data-name="Trazado 7603" transform="translate(-1169.16 -706.578)"/>
        <path id="Trazado_7604" d="M1423.328 759.9c-1.848-9.542-3.147-15.881-4.378-23.447-1.437 7.5-2.873 13.564-5.129 23.447h-12.382l-10.122-34.351h11.628c2.119 8.792 4.31 17.857 5.4 23.582.958-5.725 2.737-14.722 4.925-23.582h11.43c1.643 7.633 3.489 16.221 4.856 23.582 1.369-7.224 3.49-15.879 5.473-23.582h10.809l-10.129 34.351z" class="cls-3" data-name="Trazado 7604" transform="translate(-1045.867 -705.198)"/>
        <path id="Trazado_7605" d="M1444.217 745.318c-4.24.272-7.592.885-9.437 1.84a3.23 3.23 0 0 0-1.984 3.067c0 1.294.821 3.135 4.1 3.135 4.514 0 7.318-2.795 7.318-6.678zm-10.806 15.744c-6.636 0-10.739-4.022-10.739-10.428q0-6.236 6.156-9.2c3.695-1.705 10.876-2.521 15.39-2.8v-1.771c0-2.386-1.572-3.817-4.992-3.817-3.215 0-4.584 1.977-4.925 4.7l-9.987-.681c.617-7.7 6.157-12.133 15.87-12.133 5.062 0 8.412 1.092 11.011 3.339 2.4 2.047 3.147 4.909 3.147 10.43v11.381c0 4.7.137 8.52.889 10.293h-10.192a19.662 19.662 0 0 1-.548-3.954c-2.871 3.2-6.292 4.635-11.08 4.635" class="cls-3" data-name="Trazado 7605" transform="translate(-1021.474 -705.675)"/>
        <path id="Trazado_7606" d="M1442.484 725.551h11.765c2.6 7.293 5.13 14.654 7.455 21.948 2.052-7.363 3.83-13.837 6.292-21.948h11.013l-10.4 30.808c-4.584 13.7-8.072 17.721-17.442 17.721a19.427 19.427 0 0 1-4.447-.546v-8.862a10.1 10.1 0 0 0 3.078.546c3.695 0 4.995-1.362 6.294-5.316z" class="cls-3" data-name="Trazado 7606" transform="translate(-1006.059 -705.198)"/>
        <path id="Trazado_7607" d="M1287.735 740.652v19.871h-10.378v-19.741c0-3.839-1.534-6.9-5.811-6.9s-6.4 2.831-6.4 6.9v19.741h-10.378v-35.546h10.217v4.65h.1c2.089-3.577 6.4-5.464 10.444-5.464 4.274 0 8.387 1.757 10.41 5.659 3.362-3.739 6.724-5.659 11.881-5.659 8.748 0 12.533 6.05 12.533 14.147v22.213h-10.412v-19.871c0-3.871-1.534-6.765-5.809-6.765-4.21 0-6.4 2.733-6.4 6.765" class="cls-3" data-name="Trazado 7607" transform="translate(-1152.102 -706.278)"/>
        <path id="Trazado_7608" d="M1310.828 746.78v-.812h-6.234c-2.155 0-5.19 1.268-5.19 4.064 0 2.537 2.121 3.609 4.34 3.609a6.721 6.721 0 0 0 7.083-6.861m-21.966 3.837v-.292c0-8.488 8.78-10.9 15.732-10.9h3.492c1.958 0 2.806-1.008 2.806-2.439 0-2.308-1.86-4.422-5.647-4.422a6.329 6.329 0 0 0-6.4 4.845l-9.139-2.05c1.207-7.576 8.552-11.217 16.025-11.217 8.877 0 15.4 4.779 15.4 14.34v16.326a47.832 47.832 0 0 0 .293 5.725h-9.726a28.811 28.811 0 0 1-.228-4.424l-.1-.032a12.54 12.54 0 0 1-10.64 5.138c-6.2 0-11.879-4.032-11.879-10.6" class="cls-3" data-name="Trazado 7608" transform="translate(-1125.577 -706.291)"/>
        <path id="Trazado_7609" d="M1343.163 740.652v19.871h-10.378v-19.741c0-3.839-1.534-6.9-5.811-6.9s-6.4 2.831-6.4 6.9v19.741H1310.2v-35.546h10.217v4.65h.1c2.089-3.577 6.4-5.464 10.444-5.464 4.274 0 8.387 1.757 10.41 5.659 3.362-3.739 6.724-5.659 11.881-5.659 8.748 0 12.533 6.05 12.533 14.147v22.213h-10.412v-19.871c0-3.871-1.534-6.765-5.809-6.765-4.21 0-6.4 2.733-6.4 6.765" class="cls-3" data-name="Trazado 7609" transform="translate(-1108.978 -706.278)"/>
        <path id="Trazado_7610" d="M1363.438 759.6a9.061 9.061 0 1 0-8.812-9.073 8.691 8.691 0 0 0 8.812 9.073m-8.55-22.57h.13a13.619 13.619 0 0 1 10.837-4.943c10.508 0 16.971 9.431 16.971 18.44 0 9.2-6.854 18.5-17.266 18.5-2.349 0-7.409-.487-10.8-4.943h-.132v4.26h-10.151V714.1h10.412z" class="cls-3" data-name="Trazado 7610" transform="translate(-1082.31 -714.104)"/>
        <path id="Trazado_7611" d="M1387.086 724.208c-9.93 0-18.025 7.437-18.025 17.241a16.715 16.715 0 0 0 1.851 7.747l8.993-3.673a8.876 8.876 0 0 1-1-4.193 8.118 8.118 0 0 1 16.052-1.952l9.109-3.718c-2.39-6.828-9.059-11.452-16.975-11.452" class="cls-3" data-name="Trazado 7611" transform="translate(-1063.183 -706.243)"/>
        <path id="Trazado_7612" d="M1401.981 732.786l-9.281 3.787c.023.251.032.51.032.77a8.153 8.153 0 0 1-14.614 5.183l-9.057 3.7a17.9 17.9 0 0 0 15.485 8.27c9.93 0 18.029-7.352 18.029-17.215a17.059 17.059 0 0 0-.594-4.5" class="cls-3" data-name="Trazado 7612" transform="translate(-1063.183 -699.569)"/>
    </g>
</svg>
