<svg xmlns="http://www.w3.org/2000/svg" width="199.162" height="281.355" viewBox="0 0 199.162 281.355">
    <defs>
        <style>
            .cls-1,.cls-3{fill:none}.cls-2{clip-path:url(#clip-path)}.cls-3,.cls-4{stroke-width:3px}.cls-3{stroke-miterlimit:10;stroke:#eb537a}.cls-4{fill:#eb537a;stroke:#fff}
        </style>
        <clipPath id="clip-path">
            <path d="M0 0h199.161v281.355H0z" class="cls-1"/>
        </clipPath>
    </defs>
    <g id="ico_arrowline2" class="cls-2">
        <g id="ico_arrowline2-2" data-name="ico_arrowline2" transform="rotate(107 1816.956 1967.392)">
            <path id="Trazado_7579" d="M1269.036 345.489a389.371 389.371 0 0 0-199.278 82.732" class="cls-3" data-name="Trazado 7579" transform="translate(-623.804 3779.667)"/>
            <path id="Trazado_7591" d="M473.19 13.739A427.335 427.335 0 0 0 423.058 52.7c-1.833 1.659-.323 5.51 2.267 5.119l11.9-1.8c2.426-.112 7.825-.614 7.825-.614q4.227 10.2 8.456 20.418a2.9 2.9 0 0 0 5.561-.134c6.367-19.507 12.413-39.12 18.586-58.689.77-2.442-2.378-4.646-4.463-3.261zm-26.733 36.8a2.312 2.312 0 0 0-2.632-1.55c-2.941.431-5.875.876-8.813 1.313a422.148 422.148 0 0 1 34.242-26.542c-4.508 14.317-9.013 28.638-13.418 42.989l-6.2-14.494a2.9 2.9 0 0 0-3.179-1.72z" class="cls-4" data-name="Trazado 7591" transform="rotate(48 -4026.727 2314.009)"/>
        </g>
    </g>
</svg>
