<svg xmlns="http://www.w3.org/2000/svg" width="120" height="27.801" viewBox="0 0 120 27.801">
    <defs>
        <style>
            .cls-1{fill:none}.cls-2{clip-path:url(#clip-path)}.cls-3{fill:#1c0657}
        </style>
        <clipPath id="clip-path">
            <path d="M0 0h120v27.801H0z" class="cls-1"/>
        </clipPath>
    </defs>
    <g id="ico_mambo" class="cls-2">
        <g id="img_logo_mambo">
            <path id="Trazado_1" d="M16.587 35.227v10.039h-5.2v-9.972c0-1.947-.772-3.492-2.921-3.492s-3.223 1.444-3.223 3.492v9.972H0V27.3h5.137v2.35H5.2a6.074 6.074 0 0 1 5.276-2.75 5.617 5.617 0 0 1 5.238 2.854A7.4 7.4 0 0 1 21.69 26.9c4.4 0 6.312 3.055 6.312 7.152v11.214h-5.238V35.227c0-1.947-.772-3.425-2.921-3.425a3.1 3.1 0 0 0-3.257 3.425" class="cls-3" data-name="Trazado 1" transform="translate(0 -17.868)"/>
            <path id="Trazado_2" d="M101.98 38.283v-.4h-3.156c-1.074 0-2.619.638-2.619 2.048 0 1.276 1.074 1.813 2.182 1.813a3.4 3.4 0 0 0 3.593-3.458M90.9 40.2v-.134c0-4.3 4.432-5.506 7.924-5.506h1.746c.974 0 1.41-.5 1.41-1.242 0-1.175-.94-2.25-2.854-2.25a3.214 3.214 0 0 0-3.226 2.447l-4.6-1.041c.6-3.828 4.3-5.674 8.058-5.674 4.466 0 7.756 2.417 7.756 7.252v8.26a27.282 27.282 0 0 0 .134 2.888h-4.9a16.82 16.82 0 0 1-.1-2.25h-.034a6.33 6.33 0 0 1-5.372 2.585c-3.089.034-5.943-2.015-5.943-5.339" class="cls-3" data-name="Trazado 2" transform="translate(-60.38 -17.802)"/>
            <path id="Trazado_3" d="M164.42 35.227v10.039h-5.238v-9.972c0-1.947-.772-3.492-2.921-3.492s-3.223 1.444-3.223 3.492v9.972H147.8V27.3h5.137v2.35h.034a6.075 6.075 0 0 1 5.271-2.753 5.617 5.617 0 0 1 5.238 2.854 7.4 7.4 0 0 1 5.977-2.854c4.4 0 6.312 3.055 6.312 7.152v11.217h-5.238V35.227c0-1.947-.772-3.425-2.921-3.425a3.08 3.08 0 0 0-3.19 3.425" class="cls-3" data-name="Trazado 3" transform="translate(-98.175 -17.868)"/>
            <path id="Trazado_4" d="M248.9 23a4.387 4.387 0 0 0 4.432-4.6 4.45 4.45 0 1 0-8.9 0A4.433 4.433 0 0 0 248.9 23m-4.3-11.416h.067a6.834 6.834 0 0 1 5.477-2.484c5.305 0 8.562 4.768 8.562 9.334 0 4.667-3.458 9.368-8.7 9.368a6.693 6.693 0 0 1-5.439-2.485h-.067v2.149h-5.1V0h5.238v11.584z" class="cls-3" data-name="Trazado 4" transform="translate(-159.019)"/>
            <path id="Trazado_5" d="M313.965 27a8.811 8.811 0 0 0-9.065 8.73 8.48 8.48 0 0 0 .94 3.928l4.533-1.847a4.285 4.285 0 0 1-.5-2.115 4.055 4.055 0 0 1 4.063-4.231 4 4 0 0 1 4 3.257l4.6-1.88A8.933 8.933 0 0 0 313.965 27" class="cls-3" data-name="Trazado 5" transform="translate(-202.527 -17.934)"/>
            <path id="Trazado_6" d="M321.387 50l-4.667 1.914v.4a4.042 4.042 0 0 1-4.1 4.231 3.977 3.977 0 0 1-3.257-1.612l-4.566 1.88a9.017 9.017 0 0 0 7.79 4.2 8.783 8.783 0 0 0 9.065-8.7 7.313 7.313 0 0 0-.265-2.313" class="cls-3" data-name="Trazado 6" transform="translate(-202.461 -33.212)"/>
        </g>
    </g>
</svg>
