<svg xmlns="http://www.w3.org/2000/svg" width="158.888" height="304.861" viewBox="0 0 158.888 304.861">
    <defs>
        <style>
            .cls-1{fill:none}.cls-2{clip-path:url(#clip-path)}.cls-3{fill:#2d1963}.cls-4{fill:#fdfdfd}.cls-5{fill:#fefefe}
        </style>
        <clipPath id="clip-path">
            <path d="M0 0h158.888v304.861H0z" class="cls-1"/>
        </clipPath>
    </defs>
    <g id="ico_fantasmambo" class="cls-2">
        <path id="Trazado_7620" d="M1876.9 1076.854l8.4-15.46a185.322 185.322 0 0 1 13.019-20.611c1.977-2.726 4.144-5.23 7.347-6.512 1.23-.493 1.333-1.074.9-2.195a6.081 6.081 0 0 1-.154-2.1c3.375-.313 3.57-5.005 6.981-5.1 1.253-.034 1.985-.24 2.067-1.691.134-2.394 1.6-2.058 3.158-1.377a6.46 6.46 0 0 1 3.175 3.062c2.971 5.7 7.862 9.2 13.477 11.894 1.832.88 3.7 1.707 5.45 2.725 6.329 3.677 8.538 9.255 7.706 16.537-1.907 16.7-7.624 32.457-11.48 48.671-2.809 11.813-3.325 23.873-2.862 36.7 3.147-3.787 5.892-7.114 8.663-10.419 5.227-6.236 10.1-12.788 16.179-18.267a9.113 9.113 0 0 1 2.557-1.886c1.848-.718 3.68-1.026 3.442 2.05-.179 2.3.493 3.26 2.828 1.732a6.022 6.022 0 0 1 2.745-.724c3.648-.289 4.4.725 3.379 4.3-.285 1-.985 1.95-.406 3.243l5.278-2.281a12.235 12.235 0 0 1-2.237 11.925c-8.185 9.914-16.48 19.74-25.367 29.036-4.389 4.592-9.666 8.12-15.1 11.382-3.811 2.288-7.665 2.42-11.52-.3-.812 10.656-1.631 20.962-2.362 31.275-.255 3.59 2.071 5.442 5.04 6.621a121.433 121.433 0 0 1 23.485 12.413 51.586 51.586 0 0 1 5.484 3.917c2.106 1.876 3.857 2 6.156.205 3.939-3.079 8.64-4.125 13.571-4.1 3.128.02 3.8 1.14 2.485 4.042-.609 1.349-1.363 2.633-2.172 4.178 4.166.355 2.686 2.4 1.537 4.417-.343.6-1.207 1.338-.533 2 3.211 3.134.052 4.8-1.653 6.417a51.027 51.027 0 0 1-6.519 4.663c-3.62 2.482-7.272 4.919-10.882 7.414-3.852 2.663-7.643 3.2-11.947.7-8.162-4.741-17.108-7.777-25.824-11.3-1.311-.531-2.021-.338-2.765 1a87.5 87.5 0 0 1-15.992 20.813c-1.493 1.431-.73 2.278.092 3.462 5.8 8.362 11.3 16.9 14.457 26.691.918 2.85 1.921 5.687 1.838 8.745-.09 3.31-.542 3.627-3.725 2.687-.6-.179-1.214-.344-2.022-.572-.046.515-.116.9-.111 1.293.017 1.461.567 3.146-1.166 4-1.685.831-3.156.029-4.37-1.121-1.355-1.283-2.03-1.08-2.575.714a21.033 21.033 0 0 1-1.9 4.406c-1.87 3.221-3.94 3.243-6.075.135a13.46 13.46 0 0 1-1.359-2.54c-8.7-21.388-23.1-37.776-42.935-49.562-10.021-5.953-18.892-13.3-25.713-22.939-3.949-5.584-6.336-12.33-5.34-18.418 1.986-12.131 1.755-24.434 4.128-36.517s6.981-23.3 11.479-34.624c3.982-10.023 8.38-20 9.945-30.726 1.451-9.944 1.608-20.07 2.8-30.06 2.779-23.37 4.247-46.926 9.6-69.943.073-.313.1-.638.2-.943.516-1.619.825-3.344 2.887-3.877 2.078-.536 3.173.749 4.252 2.123 5.852-6.3 7.028-6.144 9.466 1.2.787-.085.9-.795 1.171-1.318.9-1.741 2.227-2.583 4.2-2.047 2.036.553 1.991 2.224 2.033 3.868.268 10.676-2.045 21.082-3.318 31.594-1 8.289-2.224 16.551-3.348 24.825a1.459 1.459 0 0 0 .139 1.45zm41.888-51.615l-.736-.124.1 1.069c-.051 1.252.522 2.9-.614 3.6-1.158.711-1.881-1.019-2.9-1.49-.672-.312-1.292-.769-2.031-.132.561 2.347 3.53 4.031 1.216 7.251-1.045 1.454-.311 2.254-2.4 1.544-4.2-1.432-7.107-.02-9.745 3.328-11.428 14.5-19.4 30.939-26.993 47.6-.8 1.747-1.4 3.58-2.153 5.347-.3.713-.866 1.367-1.742.983-.788-.345-.388-1.094-.262-1.688.976-4.6 2.088-9.183 2.92-13.813 3.3-18.348 5.116-36.9 7.439-55.379.212-1.685.685-4.044-1.274-4.376-1.715-.29-1.945 2.147-2.372 3.637-.982 3.427-1.907 6.87-2.967 10.71a4.614 4.614 0 0 1-1.36-3.869q0-4.824-.017-9.649c-.007-1.361-.322-2.8-1.756-3.094-1.523-.317-2.151 1.178-2.692 2.285a18.263 18.263 0 0 0-1.353 6.892 9.7 9.7 0 0 1-1.714 5.616 2.335 2.335 0 0 1-.917-1.707 27.988 27.988 0 0 1-.416-8.624c.081-1.262-.51-2.555-1.781-2.7-1.065-.117-1.317 1.242-1.578 2.135a84.991 84.991 0 0 0-1.352 5.283c-1.877 8.379-2.19 16.977-3.524 25.435-2.384 15.121-4.7 30.245-5.627 45.56-.6 9.935-1.153 19.935-2.8 29.726-1.808 10.772-6.566 20.77-10.814 30.76a151.325 151.325 0 0 0-11.819 63.537c.015.645-1.034 1.363-.341 1.771-1.743 1.083-.984 2.558-.82 4.009 1.145 10.134 7.041 17.466 14.16 24.069 6.794 6.3 14.8 10.913 22.425 16.066 12.322 8.33 22.59 18.613 29.906 31.7 3.088 5.526 6.754 10.739 8.5 17.127 4.3-3.307 1.152-8.368 3.619-11.8 3.023 1.186 3.517 5.085 7.119 5.881l-1.721-10.995a7.436 7.436 0 0 1 1.035.409c1.626.995 2.21 2.858 3.452 4.173.8.85 1.751 2.146 2.886 1.567 1.054-.537.2-1.93-.012-2.9-2.326-10.52-7.158-19.865-13.471-28.5-3.058-4.184-3.072-4.174-7.449-1.568-3.313 1.972-3.313 1.972-5.565 1.064 15.764-11.956 16.406-12.614 27.862-31.275 1.1-1.793 1.974-1.009 3.1-.509q13.766 6.114 27.519 12.254c2.206.99 4.524 2 6.74.644 6.647-4.078 13.5-7.858 19.52-12.891.365-.306.924-.611.623-1.436l-4.245-.388 5.935-6.485c-2.161-.617-3.629.676-5.285.754-.769.036-1.659-.009-2.009-.73-.449-.924.572-1.231 1.1-1.656 1.819-1.473 4.141-2.327 5.5-4.362.579-.87 1.418-1.888.729-2.928-.584-.88-1.754-.558-2.7-.469-3.877.365-7.117 2.3-10.154 4.484-2.9 2.084-5.337 2.018-8.039-.353a81.435 81.435 0 0 0-10.979-7.81c-5.935-3.678-12.4-6.246-18.706-9.157-4.808-2.219-5.817-4.5-5.375-9.7.943-11.093 2.421-22.138 2.87-33.278.311-7.694.505-15.416 2.391-22.953.35-1.4.621-2.852 2.808-3.132-.41 2.336-.788 4.425-1.141 6.518-1.049 6.224-2.43 12.436-.937 18.785.768 3.262 2.243 4.231 5.549 3.783a15.831 15.831 0 0 0 6.69-2.926c15.4-10.335 26.283-25.039 37.832-39.093a6.071 6.071 0 0 0 1.157-5.9c-4.821 1.919-8.1 5.905-12.856 8.662 1.743-5.934 7.956-8.951 7.9-15.306-6.508 1.248-9.2 7.648-14.926 10.809 1.329-5.066 5.383-8.253 5.459-13.124-1.574.056-2.207 1.167-3.036 1.956a166.784 166.784 0 0 0-14.325 16.058q-4.551 5.62-9.129 11.216a2.9 2.9 0 0 1-3.1 1.234c-1.188-.325-.735-1.419-.779-2.175-.862-14.837.056-29.457 4.21-43.87 4.144-14.378 8.095-28.823 9.687-43.807.54-5.074-.739-8.723-5.074-11.466a81.153 81.153 0 0 0-8.668-4.849 25.488 25.488 0 0 1-11.825-10.934c-.391-.719-.67-1.59-1.581-1.921zm-9.57 6.789c.207 1.591 1.332 1.971 2.56 2.2.044.008.326-.545.244-.709a2.671 2.671 0 0 0-2.803-1.491z" class="cls-3" data-name="Trazado 7620" transform="translate(-1820.502 -1013.751)"/>
        <path id="Trazado_7621" d="M1909.219 1032.028a2.671 2.671 0 0 1 2.8 1.486c.082.164-.2.717-.244.709-1.224-.223-2.349-.604-2.556-2.195z" class="cls-4" data-name="Trazado 7621" transform="translate(-1820.502 -1013.751)"/>
        <path id="Trazado_7622" d="M1876.9 1076.854l-.542 1a1.459 1.459 0 0 1-.139-1.45z" class="cls-5" data-name="Trazado 7622" transform="translate(-1820.502 -1013.751)"/>
        <path id="Trazado_7623" d="M1918.156 1026.184l-.1-1.069.736.123z" class="cls-4" data-name="Trazado 7623" transform="translate(-1820.502 -1013.751)"/>
        <path id="Trazado_7624" d="M1911.719 1106.323c-8.37.049-14.783-1.6-20.567-5.489a11.019 11.019 0 0 1-4.974-7.5 55.018 55.018 0 0 1-1.16-14.026c.136-1.841.1-4.414 2.06-4.946 2.414-.656 4.507.839 5.7 3.191a23.88 23.88 0 0 1 1.456 2.847c3.75 10.773 12.313 13.34 22.44 13.125 3.412-.072 6.815-.543 10.228-.694 2.145-.095 4.088.466 4.846 2.834.725 2.265-.669 3.649-2.212 4.879-5.644 4.503-12.327 5.587-17.817 5.779zm-25.129-22.887c1.1 11.086 3.871 17.592 15.687 19.788a35.9 35.9 0 0 0 5.369.856c6.809.211 13.471-.444 19.336-4.38 1.1-.738 2.744-1.733 2.295-3.109-.438-1.342-2.274-1.318-3.669-1.216-2.764.2-5.527.718-8.285.678-13.974-.2-21.047-3.465-24.927-13.762-.77-2.042-1.749-5.2-3.966-4.763-2.417.472-1.368 3.842-1.84 5.908z" class="cls-3" data-name="Trazado 7624" transform="translate(-1820.502 -1013.751)"/>
        <path id="Trazado_7625" d="M1936.3 1070.065c-.056 5.705-2.6 10.231-6.779 13.92-1.385 1.223-3.025 2.129-4.974 1.4-2-.744-2.639-2.587-2.635-4.405a38.284 38.284 0 0 1 3.133-14.549c1.128-2.725 4.143-3.573 6.779-4.4 1.392-.434 2.354.756 3.079 1.855 1.236 1.876 1.277 4.03 1.397 6.179zm-12.183 8.467c.4 1.168-.486 3.275.932 3.933 1.651.766 3.148-.824 4.408-1.924a14.021 14.021 0 0 0 3.816-14.1c-.583-1.816-1.348-2.128-2.879-.96-4.232 3.231-5.994 7.64-6.275 13.051z" class="cls-3" data-name="Trazado 7625" transform="translate(-1820.502 -1013.751)"/>
        <path id="Trazado_7626" d="M1899.431 1069.8c.878-4.387.654-9.026 3.128-12.983 1.925-3.08 5.6-5.1 7.589-4.387 2.094.748 3.4 4.327 2.793 8.216-.723 4.613-2.268 8.9-5.764 12.221-1.651 1.567-3.581 3.355-5.9 2.372-2.136-.903-1.188-3.591-1.846-5.439zm11.388-10.919c.116-2.227-.09-3.983-1.995-4.4-1.794-.394-2.534 1.253-3.17 2.587-1.14 2.395-2.191 4.833-3.252 7.265a9.566 9.566 0 0 0-.744 5.322c.168 1.1-.215 2.716 1.082 3.092 1.127.327 2.069-.9 2.93-1.67 3.795-3.387 4.663-7.985 5.149-12.193z" class="cls-3" data-name="Trazado 7626" transform="translate(-1820.502 -1013.751)"/>
    </g>
</svg>
