<svg xmlns="http://www.w3.org/2000/svg" width="54.371" height="55.404" viewBox="0 0 54.371 55.404">
    <defs>
        <style>
            .cls-1{fill:none}.cls-2{clip-path:url(#clip-path)}.cls-3{fill:#eb537a}
        </style>
        <clipPath id="clip-path">
            <path d="M0 0h54.371v55.404H0z" class="cls-1"/>
        </clipPath>
    </defs>
    <g id="ico_arrowdown" class="cls-2" transform="translate(-.001)">
        <path id="Trazado_7574" d="M440.093 13.46a149.688 149.688 0 0 0-17.56 13.648c-.642.581-.113 1.93.794 1.793q2.085-.313 4.17-.631c-6.723 9.113-13.967 17.78-21.178 26.513-.5.6.334 1.426.891.849a295.772 295.772 0 0 0 23.028-27.577l2.962 7.152a1.017 1.017 0 0 0 1.948-.047c2.228-6.833 4.346-13.7 6.508-20.557a1.061 1.061 0 0 0-1.563-1.143zm-9.364 12.889a.81.81 0 0 0-.922-.543c-1.03.151-2.058.307-3.087.46a147.866 147.866 0 0 1 11.994-9.3 2186.189 2186.189 0 0 0-4.7 15.058l-2.173-5.077a1.017 1.017 0 0 0-1.112-.598z" class="cls-3" data-name="Trazado 7574" transform="scale(-1) rotate(-39 110.56 640.726)"/>
    </g>
</svg>
