<svg xmlns="http://www.w3.org/2000/svg" width="123.666" height="108.424" viewBox="0 0 123.666 108.424">
    <defs>
        <style>
            .cls-1{fill:none}.cls-2{clip-path:url(#clip-path)}.cls-3{fill:#fefefe}.cls-4{fill:#fe567b}
        </style>
        <clipPath id="clip-path">
            <path d="M0 0h123.666v108.424H0z" class="cls-1"/>
        </clipPath>
    </defs>
    <g id="ico_Transformacioncultural" class="cls-2">
        <path id="Trazado_7613" d="M1744.684 1153.2a4.96 4.96 0 0 0 .714-.162 33.586 33.586 0 0 0 9.488-5.341 2.689 2.689 0 0 0 .478-.575 1.394 1.394 0 0 0-.009-1.8c-.465-.568-1.046-.468-1.639-.2q-4.93 2.2-9.866 4.393a1.947 1.947 0 0 0-1.165 2.342c.192 1.006 1.147 1.127 1.999 1.343zm-56.88-29.461a1.719 1.719 0 0 0-.023-.3q-1.377-5.511-3.212-10.887a1.547 1.547 0 0 0-2.289-.982 1.6 1.6 0 0 0-.7 2.516 31.506 31.506 0 0 1 3.259 8.48 3.212 3.212 0 0 0 1.4 2.053c.923.56 1.561.181 1.561-.877zm34.62 4.12c.408.524.04 1.534.928 1.712a1.88 1.88 0 0 0 2.049-.929c1.46-2.328 2.962-4.629 4.4-6.971.286-.468.86-1.1.4-1.6a1.891 1.891 0 0 0-1.978-.262 4.494 4.494 0 0 0-1.879 1.191 16.821 16.821 0 0 0-3.7 6.106c-.089.235-.144.479-.22.756zm-70.482 5.713c.828 2.114 1.525 4.606 3.054 6.745a1.4 1.4 0 0 0 .454.385c.466.259.937.712 1.5.344.581-.381.365-.981.215-1.5a53.123 53.123 0 0 0-2.424-6.909c-.353-.795-.746-1.744-1.74-1.528s-.928 1.279-1.059 2.466zm-14.062 37.305c.476-.062 1.086-.056 1.372-.615a1.409 1.409 0 0 0-.353-1.652c-1.41-1.472-2.905-2.863-4.281-4.365-.64-.7-1.374-1.034-2.056-.476a1.462 1.462 0 0 0-.02 2.252c1.272 1.4 2.554 2.79 3.822 4.193a2.033 2.033 0 0 0 1.516.666z" class="cls-3" data-name="Trazado 7613" transform="translate(-1632.024 -1111.375)"/>
        <path id="Trazado_7614" d="M1658.826 1189.4a4.683 4.683 0 0 0-.358-3c-1.923-5.213-4.071-10.341-5.828-15.616a20.806 20.806 0 0 1-.952-9.184c.314-2.6 2.327-3.553 4.534-2.052a19.494 19.494 0 0 1 5.265 5.909c2.7 4.235 4.613 8.885 6.967 13.3a9.414 9.414 0 0 0 2.2 3.217 7.03 7.03 0 0 0-.045-3.19c-.821-7.771-1.713-15.535-2.545-23.305-.243-2.267-.214-4.519 1.195-6.5 1.649-2.318 3.825-2.507 5.809-.481 2.729 2.786 3.836 6.268 4.27 10.036.756 6.561 2.936 12.769 4.757 19.065.074.255.069.663.5.618.49-.051.446-.495.464-.815.314-5.6.79-11.187-.322-16.773-.586-2.942-.87-5.945-1.288-8.921a8.969 8.969 0 0 1 .6-4.566 3.623 3.623 0 0 1 6.34-.965 9.689 9.689 0 0 1 1.9 4.524c.441 2.309.789 4.636 1.19 6.953.067.386.128.965.567.951.655-.022.4-.687.435-1.068.5-5.387.956-10.778 1.467-16.164a15.205 15.205 0 0 1 .607-3.086 4.519 4.519 0 0 1 5.416-3.4c2.283.3 3.235 1.255 3.557 3.542.846 6.011 1.112 12.069 1.5 18.118.034.524.083 1.046.156 1.954a4.216 4.216 0 0 0 .8-2.345c.9-6.2 2.494-12.261 3.826-18.373.478-2.189 2.132-3.083 4.617-2.767 2.571.327 3.839 1.56 3.852 3.947a63.742 63.742 0 0 1-.771 8.828c-.808 6.006-1.674 12.005-2.486 18.012a5.506 5.506 0 0 0 .45 3.505 80.515 80.515 0 0 0 2.812-8.822c1.134-3.944 2.215-7.9 3.338-11.852.724-2.547 2.135-3.49 4.807-3.263 2.4.2 3.629 1.4 3.952 3.925.4 3.156-.563 6.161-1.129 9.2-1.064 5.708-2.254 11.393-3.386 17.089a1.472 1.472 0 0 0 .072 1.16c1.791-.83 3.616-1.608 5.379-2.509a7.222 7.222 0 0 1 7.685.459c2.035 1.306 2.4 2.9 1.131 4.975a181.034 181.034 0 0 1-12.4 17.173c-3.215 4.1-6.407 8.225-9.737 12.232-4.273 5.143-9.857 6.278-15.924 3.405a30.06 30.06 0 0 1-4.986-3.066c-.749-.553-1.082-.4-1.311.461a48.479 48.479 0 0 0-1.323 4.925c-.328 2.082-1.342 3.081-3.44 3.04a56.275 56.275 0 0 0-12.187 1.567c-7.2 1.445-11.748-1.079-15.377-7.982a36.383 36.383 0 0 0-8.33-10.558 15.477 15.477 0 0 0-4.179-2.638 26.836 26.836 0 0 1-6.363-3.947 5.537 5.537 0 0 1-1.833-6.7c.771-1.714 3.4-2.829 5.843-2.541a10.394 10.394 0 0 1 5.905 2.714 8.828 8.828 0 0 0 2.335 1.645zm19.119 27.473c4.995-.175 9.589-1.376 14.292-1.652a2.479 2.479 0 0 0 2.425-2.239c.569-2.64 1.181-5.271 1.742-7.913 1.382-6.514 3.925-12.717 5.106-19.285.655-3.647 1.279-7.3 1.606-10.988.073-.815.082-1.937-.973-2.1-1.013-.155-1.164.929-1.381 1.664a32.176 32.176 0 0 0-.937 5.468c-.327 2.818-.856 5.552-3.044 7.641-1.51 1.441-2.87 1.222-3.755-.678a4.111 4.111 0 0 1-.41-1.742c-.011-5.51.219-11.013.494-16.515.1-1.992.7-3.966.285-5.977-.369-1.771-1.71-3.053-3.074-2.98-1.3.069-2.065 1.18-2.179 3.275-.148 2.75-.225 5.5-.384 8.252a50.091 50.091 0 0 1-1.181 10.121 2.166 2.166 0 0 1-1.925 1.835 2.255 2.255 0 0 1-2.332-1.3 13.163 13.163 0 0 1-1.438-3.932c-.914-4.56-1.852-9.116-2.682-13.691-.707-3.894-1.286-7.811-3.229-11.346-.507-.923-.995-2.042-2.237-1.934-1.32.114-1.595 1.381-1.953 2.4a3.934 3.934 0 0 0-.126 1.48c.072 1.249.171 2.5.31 3.741.633 5.67.857 11.38 1.73 17.026a17.554 17.554 0 0 1 .118 7.16c-.3 1.169-.46 2.8-1.9 2.963-1.575.175-2.754-.988-3.631-2.289a5.2 5.2 0 0 1-.394-.807c-.446-1.007-.913-2.006-1.323-3.027-2.337-5.825-4.864-11.543-8.927-16.432-.57-.686-1.169-1.383-2.116-1.091-1 .307-1.026 1.307-.987 2.141a17.973 17.973 0 0 0 1.011 5.439q1.956 5.277 3.9 10.561c1.09 2.957 2.2 5.906 3.257 8.875a2.626 2.626 0 0 1-1.089 3.158c-1.082.833-2 .451-3.007-.222-1.495-1-3.077-1.876-4.6-2.838-2.044-1.292-4.084-.973-6.171-.117-.56.23-.5.43-.273.864a8.949 8.949 0 0 0 3.649 4.071 140.75 140.75 0 0 1 4.348 2.379c2.268 1.281 4.5 2.55 6.092 4.765 2.837 3.944 5.846 7.763 8.755 11.656a9.369 9.369 0 0 0 8.538 4.161zm17.072-39.669c.118 1.639.2 2.989.32 4.334.066.715-.142 1.948.5 1.985.9.052.8-1.183.956-1.9.728-3.271 1.377-6.56 2.087-9.835a2.525 2.525 0 0 1 2.583-2.26c1.828-.047 3.257.662 3.668 2.032a13.227 13.227 0 0 1 .54 5.046 84.961 84.961 0 0 1-1.507 8.873 153.856 153.856 0 0 1-5.278 18.309 2.126 2.126 0 0 0 1.127 2.975c1.333.691 2.566 1.592 3.933 2.2 5.474 2.421 10.862 2.917 14.924-2.776 4.419-6.194 9.363-12.014 14.081-17.994 2.239-2.838 4.065-5.958 6.1-8.935.883-1.29.594-1.889-.944-2.121a8.628 8.628 0 0 0-2.986.092c-2.476.492-4.5 1.909-6.617 3.128-.979.563-2.042 1.044-3.114.418-1.165-.681-1.093-1.931-1.073-3.095a3.982 3.982 0 0 1 .1-.743c.677-3.231 1.364-6.461 2.038-9.693 1.122-5.384 2.714-10.673 3.227-16.179.088-.947.087-1.927-.991-2.244-1.057-.31-1.739.334-2.308 1.231a28.886 28.886 0 0 0-3.083 7.948q-2.1 7.516-4.214 15.028a2.13 2.13 0 0 1-2.407 1.8 2.481 2.481 0 0 1-2.394-2.444 11.911 11.911 0 0 1 .084-2.249c1.214-9.786 2.564-19.555 3.474-29.377.142-1.527-.353-2.273-1.7-2.507-1.643-.286-2.418.178-2.718 1.775-.943 5.016-1.843 10.039-2.767 15.058-.48 2.607-.906 5.228-1.489 7.812-.4 1.758-1.942 2.121-3.142.851a4 4 0 0 1-.761-2.535c-.607-5.376-.93-10.774-1.258-16.173a60.791 60.791 0 0 0-.507-4.928 2.6 2.6 0 0 0-2.33-2.406c-1.389-.134-1.949 1.009-2.321 2.154a6.53 6.53 0 0 0-.256 1.317c-.778 7.218-1.582 14.433-2.307 21.656-.487 4.875-.867 9.768-1.27 14.368zm-8.212-17.859a4.7 4.7 0 0 1 3.106-3.3c.754-.253.681-.773.553-1.321-.385-1.654-.79-3.3-1.2-4.95-.259-1.037-.829-2.067-1.907-2.037-1.216.034-1.148 1.366-1.306 2.24a21.823 21.823 0 0 0 .754 9.369z" class="cls-4" data-name="Trazado 7614" transform="translate(-1632.024 -1111.375)"/>
        <path id="Trazado_7615" d="M1744.684 1153.2c-.852-.219-1.807-.34-2-1.349a1.947 1.947 0 0 1 1.165-2.342q4.938-2.187 9.866-4.393c.593-.264 1.174-.364 1.639.2a1.394 1.394 0 0 1 .009 1.8 2.689 2.689 0 0 1-.478.575 33.586 33.586 0 0 1-9.488 5.341 4.96 4.96 0 0 1-.713.168z" class="cls-4" data-name="Trazado 7615" transform="translate(-1632.024 -1111.375)"/>
        <path id="Trazado_7616" d="M1687.8 1123.742c0 1.06-.641 1.437-1.556.882a3.212 3.212 0 0 1-1.4-2.053 31.506 31.506 0 0 0-3.259-8.48 1.6 1.6 0 0 1 .7-2.516 1.547 1.547 0 0 1 2.289.982q1.824 5.376 3.212 10.887a1.628 1.628 0 0 1 .014.298z" class="cls-4" data-name="Trazado 7616" transform="translate(-1632.024 -1111.375)"/>
        <path id="Trazado_7617" d="M1722.424 1127.862c.079-.277.131-.521.216-.753a16.821 16.821 0 0 1 3.7-6.106 4.494 4.494 0 0 1 1.879-1.191 1.891 1.891 0 0 1 1.978.262c.461.5-.113 1.132-.4 1.6-1.434 2.342-2.936 4.643-4.4 6.971a1.88 1.88 0 0 1-2.049.929c-.884-.174-.516-1.188-.924-1.712z" class="cls-4" data-name="Trazado 7617" transform="translate(-1632.024 -1111.375)"/>
        <path id="Trazado_7618" d="M1651.942 1133.575c.131-1.187.075-2.251 1.059-2.465s1.387.733 1.74 1.528a53.123 53.123 0 0 1 2.424 6.909c.15.521.366 1.121-.215 1.5-.563.368-1.034-.085-1.5-.344a1.4 1.4 0 0 1-.454-.385c-1.529-2.137-2.226-4.629-3.054-6.743z" class="cls-4" data-name="Trazado 7618" transform="translate(-1632.024 -1111.375)"/>
        <path id="Trazado_7619" d="M1637.88 1170.88a2.033 2.033 0 0 1-1.516-.663c-1.268-1.4-2.55-2.793-3.822-4.193a1.462 1.462 0 0 1 .02-2.252c.682-.558 1.416-.222 2.056.476 1.376 1.5 2.871 2.893 4.281 4.365a1.409 1.409 0 0 1 .353 1.652c-.286.559-.896.553-1.372.615z" class="cls-4" data-name="Trazado 7619" transform="translate(-1632.024 -1111.375)"/>
    </g>
</svg>
