<svg xmlns="http://www.w3.org/2000/svg" width="53.498" height="114.117" viewBox="0 0 53.498 114.117">
    <defs>
        <style>
            .cls-1{fill:none}.cls-2{clip-path:url(#clip-path)}.cls-3{fill:#fe557a}
        </style>
        <clipPath id="clip-path">
            <path d="M0 0h53.498v114.117H0z" class="cls-1"/>
        </clipPath>
    </defs>
    <g id="ico_transformación_del_negocio" class="cls-2" data-name="ico_transformación del negocio">
        <path id="Trazado_7593" d="M-129.953 75.171c-6.107 0-10.283.044-14.448-.349-2.065-.2-2.383-.594-1.928-2.618a84.336 84.336 0 0 1 3.521-10.5c1.968-5.354 3.38-10.887 5.292-16.26 2.434-6.843 4.657-13.752 6.444-20.8a20.343 20.343 0 0 0 .148-5.046c.018-5-.094-10.01.376-15 .176-1.871.313-2.076 2.184-2.37a54.566 54.566 0 0 1 6.867-.385 34.106 34.106 0 0 0 3.046-.236c1.431-.172 2.115.323 2.237 1.771.21 2.476.363 4.957.583 7.432q.47 5.283 1.011 10.561a14.116 14.116 0 0 0 1.538 4.5C-106.3 40.252-100.216 54.938-94 69.567c.3.7.63 1.4.864 2.121a1.59 1.59 0 0 1-.891 2.149 5.184 5.184 0 0 1-2.388.6c-5.576.133-11.153.241-16.727.417-6.249.195-12.495.259-16.811.317zm25.176-3.713c2.132-.1 4.265-.218 6.4-.3 1.146-.047 1.153-.025.8-1.124a157.063 157.063 0 0 0-5.939-15c-4.061-9.277-7.916-18.644-12.094-27.871a1.961 1.961 0 0 0-2.081-1.369c-3.28.061-6.561.062-9.841.025a1.082 1.082 0 0 0-1.254.93c-1.309 4.425-2.651 8.84-4 13.254q-4.64 15.206-9.315 30.4c-.284.916.016 1.087.819 1.171 2.666.279 5.337.373 8.015.4 9.503.098 18.993-.374 28.49-.515zm-23.849-59.74a71.932 71.932 0 0 0 .524 9.913c.09.7.348.889 1.011.908 2.83.082 5.659.212 8.488.328 1.355.056 1.349.061 1.221-1.311-.5-5.352-1.012-10.7-1.469-16.06-.066-.779-.356-.93-1.058-.924-2.549.024-5.085.256-7.626.4-.619.035-.863.287-.918.934-.166 2.002-.19 4.005-.173 5.813z" class="cls-3" data-name="Trazado 7593" transform="translate(146.51 38.944)"/>
        <path id="Trazado_7594" d="M-110.057-45.41c-.006-4.754 2.281-8.215 5.9-9.712s7.545-.606 10.558 2.486c2.865 2.938 4.073 6.381 2.649 10.393a10.141 10.141 0 0 1-8.6 7.187c-3.346.46-5.952-.973-7.943-3.588a12.211 12.211 0 0 1-2.564-6.766zM-101-38.1a11.7 11.7 0 0 0 2.616-.265 6.715 6.715 0 0 0 4.88-9.16 8.252 8.252 0 0 0-8.11-5.151c-3.237.1-5.232 1.937-5.553 5.065a10.428 10.428 0 0 0 1.822 7.161c1.1 1.602 2.533 2.596 4.345 2.35z" class="cls-3" data-name="Trazado 7594" transform="translate(135.786 55.832)"/>
        <path id="Trazado_7595" d="M-118.492-12.977c-3.162-.013-5.833-2.417-5.842-5.259a5.907 5.907 0 0 1 6.024-5.964 5.793 5.793 0 0 1 5.514 5.947c.018 3.029-2.422 5.29-5.696 5.276zm0-2.655c1.763 0 2.916-1.034 2.9-2.6a3.468 3.468 0 0 0-3.53-3.195 2.257 2.257 0 0 0-2.312 2.485c-.039 2.142.999 3.309 2.94 3.31z" class="cls-3" data-name="Trazado 7595" transform="translate(139.986 46.527)"/>
        <path id="Trazado_7596" d="M-128.837-35.792c-3.31-.018-5.38-1.963-5.359-5.034.024-3.616 2.214-5.738 5.9-5.715a5.2 5.2 0 0 1 4.85 5.17 5.665 5.665 0 0 1-5.391 5.579zm-2.869-5.113a2.422 2.422 0 0 0 2.662 2.566c1.488-.013 2.717-1.6 2.7-3.471a2 2 0 0 0-2.206-1.981 2.987 2.987 0 0 0-3.156 2.886z" class="cls-3" data-name="Trazado 7596" transform="translate(142.888 53.099)"/>
        <path id="Trazado_7597" d="M-115.931 84.535v-.028h-13.768a3.937 3.937 0 0 0-1.507.177 1.5 1.5 0 0 0-1.074 1.7c.109.79.757.969 1.417 1.011 1.079.07 2.161.121 3.243.125q12.429.047 24.857.071a5.692 5.692 0 0 0 2.334-.406 1.2 1.2 0 0 0 .837-1.16 1.318 1.318 0 0 0-.885-1.245 3.657 3.657 0 0 0-1.495-.256q-6.979.017-13.959.011zm.29-7.083v-.026c-3.538 0-7.077-.013-10.615.006-1.443.008-2.2.547-2.186 1.462.015.959.714 1.427 2.191 1.428q10.376.007 20.751 0a2.924 2.924 0 0 0 1.215-.2 1.438 1.438 0 0 0 .888-1.54c-.044-.714-.566-.955-1.155-1.071a5.513 5.513 0 0 0-1.048-.059q-5.02-.003-10.041 0zm3.651-3.829v-.19h2.677c1.326.025 1.658-.326 1.539-1.627-.088-.957-.574-1.4-1.8-1.4-4.522.016-9.044.08-13.567.128a1.281 1.281 0 0 0-1.3.925c-.467 1.309.078 2.147 1.471 2.153 3.658.023 7.319.011 10.98.011z" class="cls-3" data-name="Trazado 7597" transform="translate(142.329 18.695)"/>
        <path id="Trazado_7598" d="M-115.931 90.41h13.959a3.657 3.657 0 0 1 1.495.256 1.318 1.318 0 0 1 .885 1.245 1.2 1.2 0 0 1-.837 1.16 5.692 5.692 0 0 1-2.334.406q-12.429-.03-24.857-.071a50.15 50.15 0 0 1-3.243-.125c-.66-.042-1.308-.222-1.417-1.011a1.5 1.5 0 0 1 1.074-1.7 3.937 3.937 0 0 1 1.507-.177q6.884-.005 13.768 0z" class="cls-3" data-name="Trazado 7598" transform="translate(142.329 12.819)"/>
        <path id="Trazado_7599" d="M-114.033 80.374h10.04a5.512 5.512 0 0 1 1.048.059c.589.116 1.111.356 1.155 1.071a1.438 1.438 0 0 1-.888 1.54 2.924 2.924 0 0 1-1.215.2q-10.376-.005-20.751 0c-1.477 0-2.176-.469-2.191-1.428-.014-.915.743-1.455 2.186-1.462 3.538-.018 7.077-.006 10.615-.006z" class="cls-3" data-name="Trazado 7599" transform="translate(140.722 15.772)"/>
        <path id="Trazado_7600" d="M-108.785 73.623c-3.66 0-7.322.012-10.983-.006-1.393-.006-1.938-.844-1.471-2.153a1.281 1.281 0 0 1 1.3-.925c4.522-.048 9.044-.112 13.567-.128 1.229 0 1.714.442 1.8 1.4.119 1.3-.212 1.652-1.539 1.627h-2.677z" class="cls-3" data-name="Trazado 7600" transform="translate(139.124 18.695)"/>
    </g>
</svg>
