<?xml version="1.0" encoding="UTF-8" standalone="no"?>
<!-- Created with Inkscape (http://www.inkscape.org/) -->

<svg
   xmlns:dc="http://purl.org/dc/elements/1.1/"
   xmlns:cc="http://creativecommons.org/ns#"
   xmlns:rdf="http://www.w3.org/1999/02/22-rdf-syntax-ns#"
   xmlns:svg="http://www.w3.org/2000/svg"
   xmlns="http://www.w3.org/2000/svg"
   xmlns:sodipodi="http://sodipodi.sourceforge.net/DTD/sodipodi-0.dtd"
   xmlns:inkscape="http://www.inkscape.org/namespaces/inkscape"
   width="210mm"
   height="297mm"
   viewBox="0 0 86 90"
   version="1.1"
   id="svg8"
   inkscape:version="0.92.4 (5da689c313, 2019-01-14)"
   sodipodi:docname="themamboway.svg">
  <defs
     id="defs2">
    <style
       id="style815">
            .cls-1,.cls-3{fill:none}.cls-2{clip-path:url(#clip-path)}.cls-3{stroke:#eb537a;stroke-miterlimit:10;stroke-width:3px}.cls-4{fill:#eb537a}
        </style>
    <clipPath
       id="clip-path">
      <path
         id="path817"
         class="cls-1"
         d="M0 0h193.825v186.345H0z" />
    </clipPath>
    <style
       id="style841">
            .cls-1,.cls-3{fill:none}.cls-2{clip-path:url(#clip-path)}.cls-3{stroke:#eb537a;stroke-miterlimit:10;stroke-width:3px}.cls-4{fill:#eb537a}
        </style>
    <clipPath
       id="clip-path-9">
      <path
         id="path843"
         class="cls-1"
         d="M0 0h186.345v193.825H0z" />
    </clipPath>
    <style
       id="style865">
            .cls-1,.cls-3{fill:none}.cls-2{clip-path:url(#clip-path)}.cls-3{stroke:#eb537a;stroke-miterlimit:10;stroke-width:3px}.cls-4{fill:#eb537a}
        </style>
    <clipPath
       id="clip-path-3">
      <path
         id="path867"
         class="cls-1"
         d="M0 0h186.345v193.825H0z" />
    </clipPath>
    <style
       id="style889">
            .cls-1,.cls-3{fill:none}.cls-2{clip-path:url(#clip-path)}.cls-3{stroke:#eb537a;stroke-miterlimit:10;stroke-width:3px}.cls-4{fill:#eb537a}
        </style>
    <clipPath
       id="clip-path-6">
      <path
         id="path891"
         class="cls-1"
         d="M0 0h193.825v186.345H0z" />
    </clipPath>
    <style
       id="style915">
            .cls-1{fill:none}.cls-2{clip-path:url(#clip-path)}.cls-3{fill:#1c0657}
        </style>
    <clipPath
       id="clip-path-0">
      <path
         id="path917"
         class="cls-1"
         d="M0 0h169.372v120.316H0z" />
    </clipPath>
    <style
       id="style957">
            .cls-1{fill:none}.cls-2{clip-path:url(#clip-path)}.cls-3{fill:#1c0657}
        </style>
    <clipPath
       id="clip-path-5">
      <path
         id="path959"
         class="cls-1"
         d="M0 0h169.372v120.316H0z" />
    </clipPath>
  </defs>
  <sodipodi:namedview
     id="base"
     pagecolor="#ffffff"
     bordercolor="#666666"
     borderopacity="1.0"
     inkscape:pageopacity="0.0"
     inkscape:pageshadow="2"
     inkscape:zoom="0.49497475"
     inkscape:cx="74.062256"
     inkscape:cy="838.66695"
     inkscape:document-units="mm"
     inkscape:current-layer="layer1"
     showgrid="false"
     inkscape:window-width="1366"
     inkscape:window-height="705"
     inkscape:window-x="266"
     inkscape:window-y="1072"
     inkscape:window-maximized="1"
     inkscape:snap-page="false" />
  <metadata
     id="metadata5">
    <rdf:RDF>
      <cc:Work
         rdf:about="">
        <dc:format>image/svg+xml</dc:format>
        <dc:type
           rdf:resource="http://purl.org/dc/dcmitype/StillImage" />
        <dc:title></dc:title>
      </cc:Work>
    </rdf:RDF>
  </metadata>
  <g
     inkscape:label="Capa 1"
     inkscape:groupmode="layer"
     id="layer1">
    <g
       id="g1030"
       transform="translate(-50.781209,-39.114073)">
      <g
         transform="matrix(0.26458333,0,0,0.26458333,56.373579,27.854479)"
         id="ico_arrow4"
         class="cls-2"
         clip-path="url(#clip-path)">
        <g
           id="_4"
           data-name="4"
           transform="rotate(17,20.689,148.342)">
          <g
             id="Grupo_23319"
             data-name="Grupo 23319">
            <path
               style="fill:none;stroke:#eb537a;stroke-width:3px;stroke-miterlimit:10"
               inkscape:connector-curvature="0"
               id="Trazado_7579"
               d="M 135.731,0 A 155.587,155.587 0 0 0 0,128.685"
               class="cls-3"
               data-name="Trazado 7579"
               transform="translate(0,17.663)" />
            <path
               style="fill:#eb537a"
               inkscape:connector-curvature="0"
               id="Trazado_7591"
               d="M 20.274,0.171 A 170.075,170.075 0 0 0 0.322,15.678 c -0.729,0.66 -0.128,2.193 0.9,2.037 Q 3.593,17.359 5.962,17 c 0.966,-0.044 3.114,-0.244 3.114,-0.244 l 3.366,8.126 a 1.155,1.155 0 0 0 2.213,-0.053 C 17.187,17.065 19.593,9.259 22.049,1.472 A 1.205,1.205 0 0 0 20.274,0.171 Z M 9.634,14.815 A 0.92,0.92 0 0 0 8.587,14.2 c -1.17,0.172 -2.338,0.349 -3.508,0.523 A 168.012,168.012 0 0 1 18.707,4.158 c -1.794,5.7 -3.587,11.4 -5.34,17.109 L 10.9,15.5 A 1.156,1.156 0 0 0 9.634,14.815 Z"
               class="cls-4"
               data-name="Trazado 7591"
               transform="rotate(48,70.799,159.017)" />
          </g>
        </g>
      </g>
      <g
         transform="matrix(0.26458333,0,0,0.26458333,39.539449,68.841786)"
         id="ico_arrow1"
         class="cls-2"
         clip-path="url(#clip-path)">
        <g
           id="_1"
           data-name="1"
           transform="rotate(-73,101.27,74.482)">
          <path
             style="fill:none;stroke:#eb537a;stroke-width:3px;stroke-miterlimit:10"
             inkscape:connector-curvature="0"
             id="Trazado_7579-5"
             d="M 135.731,0 A 155.6,155.6 0 0 0 0,128.685"
             class="cls-3"
             data-name="Trazado 7579"
             transform="translate(0,17.663)" />
          <path
             style="fill:#eb537a"
             inkscape:connector-curvature="0"
             id="Trazado_7591-4"
             d="M 20.274,0.171 A 170.075,170.075 0 0 0 0.322,15.678 c -0.729,0.66 -0.128,2.193 0.9,2.037 Q 3.593,17.359 5.962,17 c 0.966,-0.044 3.114,-0.244 3.114,-0.244 l 3.366,8.126 a 1.155,1.155 0 0 0 2.213,-0.053 C 17.187,17.065 19.593,9.259 22.049,1.472 A 1.205,1.205 0 0 0 20.274,0.171 Z M 9.634,14.815 A 0.92,0.92 0 0 0 8.587,14.2 c -1.17,0.172 -2.338,0.349 -3.508,0.523 A 168.013,168.013 0 0 1 18.707,4.158 c -1.794,5.7 -3.587,11.4 -5.34,17.109 L 10.9,15.5 A 1.156,1.156 0 0 0 9.634,14.815 Z"
             class="cls-4"
             data-name="Trazado 7591"
             transform="rotate(48,70.799,159.017)" />
        </g>
      </g>
      <g
         transform="matrix(0.26458333,0,0,0.26458333,99.340119,44.688328)"
         id="ico_arrow3"
         class="cls-2"
         clip-path="url(#clip-path)">
        <g
           id="_3"
           data-name="3"
           transform="rotate(107,76.575,90.921)">
          <path
             style="fill:none;stroke:#eb537a;stroke-width:3px;stroke-miterlimit:10"
             inkscape:connector-curvature="0"
             id="Trazado_7579-8"
             d="M 135.731,0 A 155.6,155.6 0 0 0 0,128.685"
             class="cls-3"
             data-name="Trazado 7579"
             transform="translate(0,17.663)" />
          <path
             style="fill:#eb537a"
             inkscape:connector-curvature="0"
             id="Trazado_7591-3"
             d="M 20.274,0.171 A 170.075,170.075 0 0 0 0.322,15.678 c -0.729,0.66 -0.128,2.193 0.9,2.037 Q 3.593,17.359 5.962,17 c 0.966,-0.044 3.114,-0.244 3.114,-0.244 l 3.366,8.126 a 1.155,1.155 0 0 0 2.213,-0.053 C 17.187,17.065 19.593,9.259 22.049,1.472 A 1.205,1.205 0 0 0 20.274,0.171 Z M 9.634,14.815 A 0.92,0.92 0 0 0 8.587,14.2 c -1.17,0.172 -2.338,0.349 -3.508,0.523 A 168.013,168.013 0 0 1 18.707,4.158 c -1.794,5.7 -3.587,11.4 -5.34,17.109 L 10.9,15.5 A 1.156,1.156 0 0 0 9.634,14.815 Z"
             class="cls-4"
             data-name="Trazado 7591"
             transform="rotate(48,70.799,159.017)" />
        </g>
      </g>
      <g
         transform="matrix(0.26458333,0,0,0.26458333,80.527057,87.654783)"
         id="ico_arrow2"
         class="cls-2"
         clip-path="url(#clip-path)">
        <g
           id="_2"
           data-name="2"
           transform="rotate(-163,88.667,81.78)">
          <g
             id="Grupo_23319-6"
             data-name="Grupo 23319">
            <path
               style="fill:none;stroke:#eb537a;stroke-width:3px;stroke-miterlimit:10"
               inkscape:connector-curvature="0"
               id="Trazado_7579-3"
               d="M 135.731,0 A 155.6,155.6 0 0 0 0,128.685"
               class="cls-3"
               data-name="Trazado 7579"
               transform="translate(0,17.663)" />
            <path
               style="fill:#eb537a"
               inkscape:connector-curvature="0"
               id="Trazado_7591-1"
               d="M 20.274,0.171 A 170.075,170.075 0 0 0 0.322,15.678 c -0.729,0.66 -0.128,2.193 0.9,2.037 Q 3.593,17.359 5.962,17 c 0.966,-0.044 3.114,-0.244 3.114,-0.244 l 3.366,8.126 a 1.155,1.155 0 0 0 2.213,-0.053 C 17.187,17.065 19.593,9.259 22.049,1.472 A 1.205,1.205 0 0 0 20.274,0.171 Z M 9.634,14.815 A 0.92,0.92 0 0 0 8.587,14.2 c -1.17,0.172 -2.338,0.349 -3.508,0.523 A 168.012,168.012 0 0 1 18.707,4.158 c -1.794,5.7 -3.587,11.4 -5.34,17.109 L 10.9,15.5 A 1.156,1.156 0 0 0 9.634,14.815 Z"
               class="cls-4"
               data-name="Trazado 7591"
               transform="rotate(48,70.799,159.017)" />
          </g>
        </g>
      </g>
      <g
         style="stroke:none"
         transform="matrix(0.26458333,0,0,0.26458333,72.979423,68.310916)"
         id="themamboway"
         class="cls-2"
         clip-path="url(#clip-path)">
        <path
           style="fill:#1c0657;stroke:none"
           inkscape:connector-curvature="0"
           id="Trazado_7601"
           d="m 1212.674,750.232 a 21.7,21.7 0 0 1 -5.135,0.579 c -6.2,0 -7.121,-3.572 -7.121,-7.53 v -11.44 h -3.391 V 726 h 3.488 v -7.818 h 7.411 V 726 h 4.65 v 5.842 h -4.65 v 10.184 c 0,2.269 0.726,2.9 2.229,2.9 a 7.9,7.9 0 0 0 2.518,-0.435 z"
           class="cls-3"
           data-name="Trazado 7601"
           transform="translate(-1196.111,-716.252)" />
        <path
           style="fill:#1c0657;stroke:none"
           inkscape:connector-curvature="0"
           id="Trazado_7602"
           d="m 1227.059,750.727 v -13.42 c 0,-1.785 -0.194,-2.944 -0.774,-3.716 a 2.906,2.906 0 0 0 -2.569,-1.015 4.117,4.117 0 0 0 -3.439,1.835 c -0.726,1.158 -0.968,2.269 -0.968,4.489 v 11.826 h -7.509 v -34.077 h 7.362 v 13.128 a 9.927,9.927 0 0 1 7.946,-3.861 c 2.566,0 4.407,0.723 5.715,2.268 1.212,1.448 1.7,3.523 1.7,6.855 v 15.687 z"
           class="cls-3"
           data-name="Trazado 7602"
           transform="translate(-1192.282,-716.649)" />
        <path
           style="fill:#1c0657;stroke:none"
           inkscape:connector-curvature="0"
           id="Trazado_7603"
           d="m 1249.023,733.915 c 0,-2.462 -1.452,-4.489 -4.165,-4.489 -2.616,0 -4.263,1.738 -4.456,4.489 z m 7.364,8.978 c -2.18,4.392 -5.668,6.806 -11.094,6.806 -8.041,0 -12.448,-5.02 -12.448,-13.13 0,-7.917 4.795,-12.791 12.207,-12.791 8.72,0 11.529,6.661 11.529,15.2 h -16.228 c 0.388,3.138 2.276,4.489 4.99,4.489 a 4.477,4.477 0 0 0 4.457,-2.9 z"
           class="cls-3"
           data-name="Trazado 7603"
           transform="translate(-1186.827,-714.801)" />
        <path
           style="fill:#1c0657;stroke:none"
           inkscape:connector-curvature="0"
           id="Trazado_7604"
           d="m 1413.988,749.879 c -1.309,-6.758 -2.229,-11.247 -3.1,-16.6 -1.018,5.31 -2.035,9.606 -3.633,16.6 h -8.769 l -7.168,-24.328 h 8.235 c 1.5,6.227 3.053,12.646 3.827,16.7 0.679,-4.055 1.938,-10.426 3.488,-16.7 h 8.089 c 1.164,5.406 2.471,11.488 3.439,16.7 0.969,-5.116 2.472,-11.246 3.876,-16.7 h 7.655 l -7.17,24.328 z"
           class="cls-3"
           data-name="Trazado 7604"
           transform="translate(-1391.317,-639.603)" />
        <path
           style="fill:#1c0657;stroke:none"
           inkscape:connector-curvature="0"
           id="Trazado_7605"
           d="m 1437.93,739.371 a 18.92,18.92 0 0 0 -6.684,1.3 2.287,2.287 0 0 0 -1.405,2.172 c 0,0.917 0.582,2.22 2.906,2.22 3.2,0 5.183,-1.979 5.183,-4.73 z m -7.653,11.15 c -4.7,0 -7.606,-2.848 -7.606,-7.385 q 0,-4.416 4.359,-6.516 c 2.617,-1.208 7.7,-1.786 10.9,-1.98 v -1.254 c 0,-1.69 -1.113,-2.7 -3.536,-2.7 -2.277,0 -3.246,1.4 -3.488,3.331 l -7.073,-0.482 c 0.437,-5.455 4.361,-8.593 11.24,-8.593 3.585,0 5.957,0.773 7.8,2.365 1.7,1.449 2.229,3.477 2.229,7.386 v 8.06 c 0,3.331 0.1,6.034 0.63,7.29 h -7.218 a 13.907,13.907 0 0 1 -0.388,-2.8 9.7,9.7 0 0 1 -7.847,3.283"
           class="cls-3"
           data-name="Trazado 7605"
           transform="translate(-1383.19,-639.763)" />
        <path
           style="fill:#1c0657;stroke:none"
           inkscape:connector-curvature="0"
           id="Trazado_7606"
           d="m 1442.484,725.551 h 8.332 c 1.841,5.165 3.633,10.379 5.28,15.544 1.453,-5.214 2.712,-9.8 4.456,-15.544 h 7.8 l -7.362,21.818 c -3.246,9.7 -5.717,12.55 -12.353,12.55 a 13.752,13.752 0 0 1 -3.149,-0.386 v -6.276 a 7.152,7.152 0 0 0 2.18,0.387 c 2.617,0 3.537,-0.965 4.457,-3.765 z"
           class="cls-3"
           data-name="Trazado 7606"
           transform="translate(-1378.054,-639.603)" />
        <path
           style="fill:#1c0657;stroke:none"
           inkscape:connector-curvature="0"
           id="Trazado_7607"
           d="m 1278.116,735.841 v 14.073 h -7.35 v -13.981 c 0,-2.719 -1.087,-4.883 -4.115,-4.883 -3.028,0 -4.531,2 -4.531,4.883 v 13.981 h -7.35 V 724.74 h 7.235 v 3.293 h 0.069 a 8.582,8.582 0 0 1 7.4,-3.87 c 3.027,0 5.94,1.244 7.373,4.008 2.381,-2.648 4.762,-4.008 8.414,-4.008 6.2,0 8.876,4.285 8.876,10.019 v 15.731 h -7.374 v -14.072 c 0,-2.741 -1.087,-4.791 -4.114,-4.791 -2.982,0 -4.531,1.935 -4.531,4.791"
           class="cls-3"
           data-name="Trazado 7607"
           transform="translate(-1254.102,-677.332)" />
        <path
           style="fill:#1c0657;stroke:none"
           inkscape:connector-curvature="0"
           id="Trazado_7608"
           d="M 1304.419,740.176 V 739.6 H 1300 c -1.526,0 -3.676,0.9 -3.676,2.878 0,1.8 1.5,2.556 3.074,2.556 a 4.76,4.76 0 0 0 5.017,-4.859 m -15.557,2.718 v -0.207 c 0,-6.011 6.218,-7.716 11.142,-7.716 h 2.473 c 1.386,0 1.987,-0.714 1.987,-1.728 0,-1.634 -1.317,-3.131 -4,-3.131 a 4.482,4.482 0 0 0 -4.529,3.431 l -6.472,-1.452 c 0.855,-5.366 6.057,-7.944 11.349,-7.944 6.287,0 10.91,3.385 10.91,10.155 v 11.562 a 33.912,33.912 0 0 0 0.208,4.055 h -6.888 a 20.435,20.435 0 0 1 -0.161,-3.133 l -0.071,-0.023 a 8.881,8.881 0 0 1 -7.535,3.639 c -4.391,0 -8.413,-2.856 -8.413,-7.509"
           class="cls-3"
           data-name="Trazado 7608"
           transform="translate(-1245.265,-677.337)" />
        <path
           style="fill:#1c0657;stroke:none"
           inkscape:connector-curvature="0"
           id="Trazado_7609"
           d="m 1333.545,735.841 v 14.073 h -7.35 v -13.981 c 0,-2.719 -1.087,-4.883 -4.115,-4.883 -3.028,0 -4.531,2 -4.531,4.883 v 13.981 h -7.35 V 724.74 h 7.235 v 3.293 h 0.069 a 8.585,8.585 0 0 1 7.4,-3.87 c 3.027,0 5.939,1.244 7.373,4.008 2.381,-2.648 4.762,-4.008 8.414,-4.008 6.2,0 8.876,4.285 8.876,10.019 v 15.731 h -7.374 v -14.072 c 0,-2.741 -1.087,-4.791 -4.114,-4.791 -2.982,0 -4.531,1.935 -4.531,4.791"
           class="cls-3"
           data-name="Trazado 7609"
           transform="translate(-1239.734,-677.332)" />
        <path
           style="fill:#1c0657;stroke:none"
           inkscape:connector-curvature="0"
           id="Trazado_7610"
           d="m 1357.905,746.326 a 6.417,6.417 0 1 0 -6.241,-6.426 6.155,6.155 0 0 0 6.241,6.426 m -6.055,-15.984 h 0.092 a 9.646,9.646 0 0 1 7.675,-3.5 c 7.442,0 12.019,6.679 12.019,13.059 0,6.518 -4.854,13.1 -12.228,13.1 a 9.43,9.43 0 0 1 -7.65,-3.5 h -0.093 v 3.017 h -7.189 V 714.1 h 7.374 z"
           class="cls-3"
           data-name="Trazado 7610"
           transform="translate(-1230.849,-679.94)" />
        <path
           style="fill:#1c0657;stroke:none"
           inkscape:connector-curvature="0"
           id="Trazado_7611"
           d="m 1381.827,724.208 c -7.033,0 -12.766,5.267 -12.766,12.21 a 11.839,11.839 0 0 0 1.311,5.487 l 6.369,-2.6 a 6.288,6.288 0 0 1 -0.711,-2.969 5.75,5.75 0 0 1 11.368,-1.383 l 6.451,-2.633 a 12.467,12.467 0 0 0 -12.022,-8.111"
           class="cls-3"
           data-name="Trazado 7611"
           transform="translate(-1224.477,-677.321)" />
        <path
           style="fill:#1c0657;stroke:none"
           inkscape:connector-curvature="0"
           id="Trazado_7612"
           d="m 1392.375,732.786 -6.573,2.682 c 0.017,0.177 0.023,0.361 0.023,0.545 a 5.774,5.774 0 0 1 -10.349,3.67 l -6.414,2.622 a 12.676,12.676 0 0 0 10.966,5.857 c 7.033,0 12.769,-5.207 12.769,-12.191 a 12.081,12.081 0 0 0 -0.421,-3.185"
           class="cls-3"
           data-name="Trazado 7612"
           transform="translate(-1224.477,-675.097)" />
      </g>
    </g>
  </g>
</svg>
